# xmcd
#
# Track frame offsets: 
#        150
#        16275
#        17460
#        29115
#        29910
#        41715
#        43313
#        61681
#        65739
#        73194
#        87894
#        89867
#        106097
#        108137
#        119882
#        120902
#        132347
#        133975
#        152793
#        156971
#        164044
#        178714
#        180627
#
# Disc length: 2627 seconds
#
# Revision: 0
# Processed by: cddbd v1.5.2PL0 Copyright (c) Steve Scherf et al.
# Submitted via: ExactAudioCopy v0.99pb5
#
DISCID=560a4117
DTITLE=Highlands Country - December 5, 2010
DYEAR=2010
DGENRE=Country
TTITLE0=Can't Take Him Out Of Me
TTITLE1=Talking
TTITLE2=Are You Washed In The Blood?
TTITLE3=Talking
TTITLE4=Joy To The World
TTITLE5=Talking
TTITLE6=This Ain't Nothing
TTITLE7=Ebenezer Video
TTITLE8=Bill Announcements
TTITLE9=The Christ
TTITLE10=Prayer
TTITLE11=Can't Take Him Out Of Me
TTITLE12=Talking
TTITLE13=Are You Washed In The Blood?
TTITLE14=Talking
TTITLE15=Joy To The World
TTITLE16=Talking
TTITLE17=This Ain't Nothing
TTITLE18=Ebenezer Video
TTITLE19=Bill Announcements
TTITLE20=The Christ
TTITLE21=Prayer
TTITLE22=I'm From The Country
EXTD=
EXTT0=
EXTT1=
EXTT2=
EXTT3=
EXTT4=
EXTT5=
EXTT6=
EXTT7=
EXTT8=
EXTT9=
EXTT10=
EXTT11=
EXTT12=
EXTT13=
EXTT14=
EXTT15=
EXTT16=
EXTT17=
EXTT18=
EXTT19=
EXTT20=
EXTT21=
EXTT22=
PLAYORDER=
